# xmcd
#
# Track frame offsets: 
#        150
#        16551
#        37239
#        56208
#        73406
#        92650
#        112339
#        125259
#        140868
#
# Disc length: 2093 seconds
#
# Revision: 0
# Processed by: cddbd v1.5.2PL0 Copyright (c) Steve Scherf et al.
# Submitted via: ExactAudioCopy v1.3
#
DISCID=8b082b09
DTITLE=Bec Schofield - Love Country
DYEAR=2012
DGENRE=Alternative
TTITLE0=Love Country (feat. Dave Mann)
TTITLE1=She's Coming Around (feat. Dave Mann)
TTITLE2=Little Child (feat. Dave Mann)
TTITLE3=Already Dancing (feat. Dave Mann)
TTITLE4=Pahutakawa Tree (feat. Dave Mann)
TTITLE5=Blood Red Cliffs (feat. Dave Mann)
TTITLE6=Magic Carpet (feat. Dave Mann)
TTITLE7=Undermoon (feat. Dave Mann)
TTITLE8=Gratitude (feat. Dave Mann)
EXTD=
EXTT0=http://is3.mzstatic.com/image/thumb/Music/v4/4c/4d/04/4c4d04e8-d
EXTT0=7b0-64b9-6822-41c44d4cc7ef/source/170x170bb.jpg
EXTT1=
EXTT2=
EXTT3=
EXTT4=
EXTT5=
EXTT6=
EXTT7=
EXTT8=
PLAYORDER=
